<svg width="1060" height="900" viewBox="0 0 1060 900" fill="none" xmlns="http://www.w3.org/2000/svg">
<path d="M912.377 -170C912.366 -169.922 912.356 -169.845 912.345 -169.767C917.178 -167.119 1009.22 -141.13 1356.33 -52.2114C1816.13 65.5772 1134.35 -9.17328 1157 95.0243C1179.65 199.222 846.69 196.957 912.377 407.617C978.063 618.277 651.895 824.407 534.112 833.468C416.329 842.529 364.233 733.801 294.016 661.316C237.843 603.327 270.611 480.102 294.016 425.738C336.297 331.357 467.067 133.079 651.895 95.0243C836.526 57.0103 902.42 -97.1842 912.345 -169.767C912.056 -169.925 912.079 -170 912.377 -170Z" fill="#26AAA8"/>
<path d="M912.651 -239C912.637 -238.904 912.622 -238.808 912.607 -238.712C919.399 -235.434 1048.76 -203.258 1536.59 -93.1721C2182.82 52.6558 1224.62 -39.8888 1256.46 89.1128C1288.29 218.114 820.334 215.31 912.651 476.118C1004.97 736.925 546.564 992.124 381.028 1003.34C215.493 1014.56 142.276 879.949 43.5911 790.208C-35.3566 718.416 10.6962 565.858 43.5911 498.553C103.014 381.703 286.801 136.226 546.564 89.1128C806.049 42.0496 898.659 -148.851 912.607 -238.712C912.201 -238.907 912.233 -239 912.651 -239Z" fill="#26AAA8" fill-opacity="0.45"/>
</svg>
